<svg xmlns="http://www.w3.org/2000/svg" version="1.1" xmlns:xlink="http://www.w3.org/1999/xlink" xmlns:svgjs="http://svgjs.dev/svgjs" width="1500" height="1500" viewBox="0 0 1500 1500"><rect width="1500" height="1500" fill="#2979ff"></rect><g transform="matrix(0.6666666666666666,0,0,0.6666666666666666,249.78425655976667,249.78425655976673)"><svg viewBox="0 0 343 343" data-background-color="#2979ff" preserveAspectRatio="xMidYMid meet" height="1500" width="1500" xmlns="http://www.w3.org/2000/svg" xmlns:xlink="http://www.w3.org/1999/xlink"><g id="tight-bounds" transform="matrix(1,0,0,1,0.0740000000000407,0.07400000000001228)"><svg viewBox="0 0 342.85155851775386 342.85155851775386" height="342.85155851775386" width="342.85155851775386"><g><svg></svg></g><g><svg viewBox="0 0 342.85155851775386 342.85155851775386" height="342.85155851775386" width="342.85155851775386"><g><path d="M0 171.426c0-94.676 76.75-171.426 171.426-171.426 94.676 0 171.426 76.75 171.426 171.426 0 94.676-76.75 171.426-171.426 171.426-94.676 0-171.426-76.75-171.426-171.426zM171.426 338.382c92.207 0 166.956-74.749 166.956-166.956 0-92.207-74.749-166.956-166.956-166.956-92.207 0-166.956 74.749-166.956 166.956 0 92.207 74.749 166.956 166.956 166.956z" data-fill-palette-color="tertiary" fill="#ffffff" stroke="transparent"></path><ellipse rx="164.56874808852186" ry="164.56874808852186" cx="171.42577925887693" cy="171.42577925887693" fill="#ffffff" stroke="transparent" stroke-width="0" fill-opacity="1" data-fill-palette-color="tertiary"></ellipse></g><g transform="matrix(1,0,0,1,64.84655864529837,106.5425264173461)"><svg viewBox="0 0 213.1584412271571 129.76650568306167" height="129.76650568306167" width="213.1584412271571"><g><svg viewBox="0 0 213.1584412271571 129.76650568306167" height="129.76650568306167" width="213.1584412271571"><g><svg viewBox="0 0 213.1584412271571 129.76650568306167" height="129.76650568306167" width="213.1584412271571"><g transform="matrix(1,0,0,1,0,80.20090648614696)"><svg viewBox="0 0 213.1584412271571 49.565599196914704" height="49.565599196914704" width="213.1584412271571"><g id="textblocktransform"><svg viewBox="0 0 213.1584412271571 49.565599196914704" height="49.565599196914704" width="213.1584412271571" id="textblock"><g><svg viewBox="0 0 213.1584412271571 49.565599196914704" height="49.565599196914704" width="213.1584412271571"><g transform="matrix(1,0,0,1,0,0)"><svg width="213.1584412271571" viewBox="4.5 -37 161.69 37.6" height="49.565599196914704" data-palette-color="#2979ff"><path d="M9.25 0L4.5 0 4.5-35 9.25-35 9.25-20.05 26.5-20.05 26.5-35 31.25-35 31.25 0 26.5 0 26.5-15.95 9.25-15.95 9.25 0ZM49.7 0.6L49.7 0.6Q46.45 0.6 43.8-1.05 41.15-2.7 39.57-5.73 38-8.75 38-12.85L38-12.85Q38-16.75 39.57-19.85 41.15-22.95 43.92-24.78 46.7-26.6 50.3-26.6L50.3-26.6Q52.55-26.6 54.37-25.83 56.2-25.05 57.55-23.9L57.55-23.9 57.55-26 61.65-26 61.65-6.3Q61.65-4.4 62.57-3.83 63.5-3.25 64.6-3.25L64.6-3.25 63.65 0.25Q58.85 0.25 57.85-3.65L57.85-3.65Q56.7-2.05 54.72-0.73 52.75 0.6 49.7 0.6ZM50.7-3.4L50.7-3.4Q52.6-3.4 54.3-4.33 56-5.25 57.15-6.65L57.15-6.65 57.15-20.6Q55.8-21.55 54.17-22.13 52.55-22.7 50.75-22.7L50.75-22.7Q48.35-22.7 46.52-21.48 44.7-20.25 43.65-18.07 42.6-15.9 42.6-13L42.6-13Q42.6-10.2 43.65-8.03 44.7-5.85 46.55-4.63 48.4-3.4 50.7-3.4ZM80.59 0.6L80.59 0.6Q76.89 0.6 74.12-1.13 71.34-2.85 69.84-5.93 68.34-9 68.34-13L68.34-13Q68.34-16.75 69.87-19.85 71.39-22.95 74.25-24.78 77.09-26.6 80.94-26.6L80.94-26.6Q83.14-26.6 84.82-26.2 86.5-25.8 88.05-25.05L88.05-25.05 86.69-21.25Q85.3-21.95 84.02-22.28 82.75-22.6 81.19-22.6L81.19-22.6Q77.69-22.6 75.32-20.08 72.94-17.55 72.94-13.1L72.94-13.1Q72.94-10.4 73.94-8.2 74.94-6 76.72-4.7 78.5-3.4 80.89-3.4L80.89-3.4Q82.8-3.4 84.14-3.83 85.5-4.25 87.05-5.05L87.05-5.05 88.44-1.25Q86.89-0.4 84.97 0.1 83.05 0.6 80.59 0.6ZM114.74-2.5L111.64 0.5 98.19-13.35 98.19 0 93.69 0 93.69-37 98.19-37 98.19-15.85 109.94-26.5 112.54-23.65 102.49-14.75 114.74-2.5ZM128.89 0.6L128.89 0.6Q123.29 0.6 120.02-2.98 116.74-6.55 116.74-13L116.74-13Q116.74-16.9 118.21-19.98 119.69-23.05 122.34-24.83 124.99-26.6 128.49-26.6L128.49-26.6Q132.24-26.6 134.72-24.98 137.19-23.35 138.44-20.6 139.69-17.85 139.69-14.55L139.69-14.55Q139.69-12.8 139.54-11.15L139.54-11.15 121.34-11.15Q121.79-7.5 123.89-5.45 125.99-3.4 129.44-3.4L129.44-3.4Q131.69-3.4 133.49-3.88 135.29-4.35 136.94-5.1L136.94-5.1 137.99-1.25Q136.19-0.45 133.94 0.08 131.69 0.6 128.89 0.6ZM121.29-14.8L121.29-14.8 135.54-14.8Q135.54-18.6 133.64-20.65 131.74-22.7 128.39-22.7L128.39-22.7Q125.49-22.7 123.59-20.68 121.69-18.65 121.29-14.8ZM166.19-2.45L162.79 0.45 154.04-10.4 145.39 0.35 142.19-2.45 151.44-13.2 142.54-23.5 146.04-26.55 154.09-16.15 161.99-26.35 165.34-23.5 156.69-13.4 166.19-2.45Z" opacity="1" transform="matrix(1,0,0,1,0,0)" fill="#2979ff" class="wordmark-text-0" data-fill-palette-color="quaternary" id="text-0"></path></svg></g></svg></g></svg></g></svg></g><g transform="matrix(1,0,0,1,60.46447954089112,0)"><svg viewBox="0 0 92.22948214537487 68.49965809013612" height="68.49965809013612" width="92.22948214537487"><g><svg xmlns="http://www.w3.org/2000/svg" xmlns:xlink="http://www.w3.org/1999/xlink" version="1.1" x="0" y="0" viewBox="7.5 18.435 85.001 63.131" enable-background="new 0 0 100 100" xml:space="preserve" height="68.49965809013612" width="92.22948214537487" class="icon-icon-0" data-fill-palette-color="quaternary" id="icon-0"><g fill="#2979ff" data-fill-palette-color="quaternary"><path d="M89.405 18.435H10.595A3.1 3.1 0 0 0 7.5 21.53V78.471A3.1 3.1 0 0 0 10.595 81.566H89.406A3.1 3.1 0 0 0 92.501 78.471V21.529A3.1 3.1 0 0 0 89.405 18.435M10.595 19.673H89.406A1.86 1.86 0 0 1 91.263 21.529V30.604C91.195 30.594 91.127 30.583 91.056 30.583H8.951C8.878 30.583 8.808 30.594 8.738 30.604V21.528C8.738 20.506 9.571 19.673 10.595 19.673M91.263 77.14A0.207 0.207 0 0 1 91.056 77.346H8.951A0.206 0.206 0 0 1 8.745 77.14V32.027C8.745 31.914 8.838 31.821 8.951 31.821H91.055C91.169 31.821 91.262 31.914 91.262 32.027V77.14zM89.405 80.327H10.595A1.855 1.855 0 0 1 8.747 78.563C8.814 78.573 8.882 78.584 8.951 78.584H91.055C91.123 78.584 91.188 78.573 91.252 78.564A1.854 1.854 0 0 1 89.405 80.327" fill="#2979ff" data-fill-palette-color="quaternary"></path><path d="M28.178 27.787C29.628 27.787 30.808 26.607 30.808 25.157 30.808 23.706 29.628 22.526 28.178 22.526S25.547 23.706 25.547 25.157 26.728 27.787 28.178 27.787M28.178 23.765A1.394 1.394 0 0 1 28.178 26.551 1.394 1.394 0 0 1 28.178 23.765" fill="#2979ff" data-fill-palette-color="quaternary"></path><path d="M21.458 27.787A2.633 2.633 0 0 0 24.089 25.157 2.634 2.634 0 0 0 21.458 22.526C20.008 22.526 18.828 23.706 18.828 25.157S20.008 27.787 21.458 27.787M21.458 23.765A1.393 1.393 0 1 1 21.458 26.552 1.393 1.393 0 0 1 21.457 23.765" fill="#2979ff" data-fill-palette-color="quaternary"></path><path d="M14.738 27.787A2.633 2.633 0 0 0 17.369 25.157 2.634 2.634 0 0 0 14.738 22.526C13.288 22.526 12.108 23.706 12.108 25.157S13.288 27.787 14.738 27.787M14.738 23.765A1.393 1.393 0 1 1 14.738 26.552 1.393 1.393 0 0 1 14.737 23.765" fill="#2979ff" data-fill-palette-color="quaternary"></path></g><path d="M26.598 65.915C25.974 65.915 25.203 65.486 24.309 64.639 22.704 63.12 22.149 62.268 23.109 61.234L31.899 52.423 23.125 43.641C22.449 42.965 22.555 42.446 22.724 42.071 22.966 41.527 23.538 40.954 24.203 40.29 25.032 39.461 25.745 38.748 26.444 38.748 26.786 38.748 27.123 38.92 27.477 39.274L39.246 51.029C39.557 51.283 39.767 51.688 39.81 52.163 39.858 52.7 39.676 53.315 39.358 53.696L27.53 65.514C27.243 65.787 26.941 65.915 26.598 65.915M23.846 42.57C23.837 42.57 23.873 42.638 24 42.764L33.211 51.985A0.62 0.62 0 0 1 33.211 52.86L24 62.093A0.8 0.8 0 0 0 23.867 62.259C23.879 62.306 23.992 62.636 25.159 63.739 26.138 64.666 26.579 64.677 26.597 64.677V65.296L26.607 64.676 26.606 64.677C26.603 64.677 26.626 64.665 26.667 64.627L38.444 52.86C38.505 52.783 38.595 52.503 38.575 52.271A0.44 0.44 0 0 0 38.413 51.943L26.601 40.148C26.457 40.005 26.386 39.977 26.386 39.977 26.204 40.037 25.5 40.741 25.079 41.161 24.548 41.693 24.002 42.239 23.852 42.574 23.85 42.571 23.848 42.57 23.846 42.57" fill="#2979ff" data-fill-palette-color="quaternary"></path><path d="M55.834 71.436H40.498C38.904 71.436 38.578 70.202 38.578 68.348S38.904 65.26 40.498 65.26H55.834C57.337 65.26 57.621 66.345 57.621 68.348 57.621 70.396 57.346 71.436 55.834 71.436M40.498 66.497C40.132 66.497 39.815 66.497 39.815 68.348S40.131 70.199 40.498 70.199H55.834C56.188 70.199 56.384 70.199 56.384 68.348S56.165 66.497 55.834 66.497z" fill="#2979ff" data-fill-palette-color="quaternary"></path></svg></g></svg></g><g></g></svg></g></svg></g></svg></g></svg></g><defs></defs></svg><rect width="342.85155851775386" height="342.85155851775386" fill="none" stroke="none" visibility="hidden"></rect></g></svg></g></svg>